<?xml version="1.0" encoding="UTF-8" standalone="no"?>
<!-- Created with Inkscape (http://www.inkscape.org/) -->

<svg
   width="32"
   height="32"
   viewBox="0 0 8.4666657 8.4666657"
   version="1.1"
   id="svg1"
   xml:space="preserve"
   inkscape:version="1.4.2 (ebf0e940d0, 2025-05-08)"
   sodipodi:docname="arch-linux-logo.svg"
   xmlns:inkscape="http://www.inkscape.org/namespaces/inkscape"
   xmlns:sodipodi="http://sodipodi.sourceforge.net/DTD/sodipodi-0.dtd"
   xmlns:xlink="http://www.w3.org/1999/xlink"
   xmlns="http://www.w3.org/2000/svg"
   xmlns:svg="http://www.w3.org/2000/svg"><sodipodi:namedview
     id="namedview1"
     pagecolor="#505050"
     bordercolor="#eeeeee"
     borderopacity="1"
     inkscape:showpageshadow="0"
     inkscape:pageopacity="0"
     inkscape:pagecheckerboard="0"
     inkscape:deskcolor="#505050"
     inkscape:document-units="px"
     showguides="true"
     inkscape:lockguides="false"
     inkscape:zoom="16"
     inkscape:cx="20.34375"
     inkscape:cy="16.34375"
     inkscape:window-width="1920"
     inkscape:window-height="1080"
     inkscape:window-x="0"
     inkscape:window-y="0"
     inkscape:window-maximized="1"
     inkscape:current-layer="layer1" /><defs
     id="defs1"><linearGradient
       x1="112.49854"
       y1="6.1372099"
       x2="112.49853"
       y2="129.3468"
       id="path1082_2_"
       gradientUnits="userSpaceOnUse"
       gradientTransform="translate(287,-83)"><stop
         id="stop193"
         style="stop-color:#ffffff;stop-opacity:0"
         offset="0" /><stop
         id="stop195"
         style="stop-color:#ffffff;stop-opacity:0.27450982"
         offset="1" /><midPointStop
         offset="0"
         style="stop-color:#FFFFFF"
         id="midPointStop197" /><midPointStop
         offset="0.5"
         style="stop-color:#FFFFFF"
         id="midPointStop199" /><midPointStop
         offset="1"
         style="stop-color:#000000"
         id="midPointStop201" /></linearGradient><linearGradient
       x1="541.33502"
       y1="104.50665"
       x2="606.91248"
       y2="303.14029"
       id="linearGradient2544"
       xlink:href="#path1082_2_"
       gradientUnits="userSpaceOnUse"
       gradientTransform="matrix(-0.3937741,0,0,0.393752,357.51969,122.00151)" /><linearGradient
       id="linearGradient3388"><stop
         id="stop3390"
         style="stop-color:#000000;stop-opacity:0"
         offset="0" /><stop
         id="stop3392"
         style="stop-color:#000000;stop-opacity:0.37113401"
         offset="1" /></linearGradient><linearGradient
       x1="490.72305"
       y1="237.72447"
       x2="490.72305"
       y2="183.9644"
       id="linearGradient4416"
       xlink:href="#linearGradient3388"
       gradientUnits="userSpaceOnUse"
       gradientTransform="matrix(0.749107,0,0,0.749107,-35.459862,91.44108)" /></defs><g
     inkscape:label="Layer 1"
     inkscape:groupmode="layer"
     id="layer1"><path
       d="M 4.2329999,0.00413409 C 3.8563195,0.92742548 3.6291242,1.5313665 3.2097398,2.427212 3.466875,2.6997075 3.7824963,3.0170424 4.2950641,3.3754421 3.7440034,3.1487403 3.3681126,2.9211369 3.0872033,2.6849524 2.5504713,3.8046485 1.7095669,5.399606 0.00310046,8.4650193 1.3443258,7.6908986 2.3840197,7.2136448 3.3529644,7.0315372 3.3113576,6.8526311 3.2877024,6.6591091 3.2893091,6.4571898 l 0.00159,-0.042957 C 3.312179,5.5551583 3.7591803,4.8945299 4.2886955,4.9393851 4.8182111,4.9842398 5.2297975,5.7174388 5.2085158,6.5765138 5.2045143,6.7381646 5.1862752,6.8936707 5.154409,7.037901 6.1128332,7.2253397 7.1414099,7.7013715 8.464488,8.4650193 8.2036059,7.9848305 7.9707435,7.5519753 7.748368,7.1397246 7.3980909,6.8683037 7.0327346,6.5150483 6.2874773,6.1326278 6.7997243,6.2656982 7.1664866,6.419226 7.4523706,6.5908329 5.1914194,2.3823797 5.0083306,1.8231632 4.2329999,0.00413409 Z"
       id="path2518-6"
       style="fill:#000000;fill-opacity:1;fill-rule:evenodd;stroke:none;stroke-width:0.0509179"
       inkscape:label="path2518" /></g></svg>
